<svg width="24" height="24" viewBox="0 0 24 24" fill="none" xmlns="http://www.w3.org/2000/svg">
<path d="M4.5 3.75L19.5 20.25" stroke="currentColor" stroke-linecap="round" stroke-linejoin="round"/>
<path d="M14.5222 14.7746C13.834 15.405 12.9336 15.7532 12.0003 15.7496C11.2435 15.7495 10.5043 15.5204 9.88009 15.0924C9.25585 14.6644 8.77575 14.0575 8.50289 13.3515C8.23004 12.6455 8.17719 11.8735 8.35131 11.1369C8.52543 10.4003 8.91837 9.73369 9.47846 9.22461" stroke="currentColor" stroke-linecap="round" stroke-linejoin="round"/>
<path d="M6.9375 6.43164C3.1125 8.36289 1.5 12.0004 1.5 12.0004C1.5 12.0004 4.5 18.7504 12 18.7504C13.7574 18.7647 15.4929 18.3598 17.0625 17.5691" stroke="currentColor" stroke-linecap="round" stroke-linejoin="round"/>
<path d="M19.556 15.8531C21.5997 14.025 22.4997 12 22.4997 12C22.4997 12 19.4997 5.25002 11.9997 5.25002C11.3495 5.24874 10.7004 5.30205 10.0591 5.4094" stroke="currentColor" stroke-linecap="round" stroke-linejoin="round"/>
<path d="M12.7031 8.31641C13.5006 8.46751 14.2273 8.8739 14.7735 9.47426C15.3198 10.0746 15.6559 10.8364 15.7313 11.6445" stroke="currentColor" stroke-linecap="round" stroke-linejoin="round"/>
</svg>
